<svg width="120" height="129" viewBox="0 0 120 129" fill="none" xmlns="http://www.w3.org/2000/svg">
<path d="M56.9096 127.04C86.3096 127.04 110.145 103.205 110.145 73.7003C110.145 44.1953 86.3096 20.3604 56.9096 20.3604C27.5096 20.3604 3.67456 44.1953 3.67456 73.7003C3.67456 103.205 27.5096 127.04 56.9096 127.04Z" fill="#F1F3F9" stroke="#D6DCE8" stroke-width="2.1" stroke-miterlimit="10"/>
<path d="M17.7449 39.1543H93.4499C96.4949 39.1543 98.8049 41.4643 98.8049 44.5093V92.4943C98.8049 95.5393 96.4949 97.8493 93.4499 97.8493H17.7449C14.6999 97.8493 12.3899 95.5393 12.3899 92.4943V44.5093C12.3899 41.4643 14.9099 39.1543 17.7449 39.1543Z" fill="#F1F3F9" stroke="#D6DCE8" stroke-width="2.1" stroke-miterlimit="10"/>
<path d="M100.275 69.9198V93.5448C100.275 96.5898 97.8601 99.1098 94.7101 99.1098H16.9051C13.8601 99.1098 11.3401 96.5898 11.3401 93.5448V67.9248" stroke="#1676EE" stroke-width="3.15" stroke-linecap="round" stroke-linejoin="round"/>
<path d="M93.6614 56.6895H69.0914C66.6764 56.6895 64.3664 57.5295 62.5814 58.9995L56.1764 64.2495C54.3914 65.7195 52.0814 66.5595 49.6664 66.5595H21.9464C19.1114 66.5595 16.8014 68.8695 16.8014 71.7045C16.8014 71.9145 16.8014 72.2295 16.9064 72.4395L22.0514 99.5295C22.4714 102.049 24.5714 103.939 27.1964 103.939H86.5214C89.0414 103.939 91.2464 102.154 91.6664 99.6345L98.8064 62.5695C99.3314 59.7345 97.4414 57.2145 94.6064 56.6895C94.1864 56.6895 93.8714 56.6895 93.6614 56.6895Z" fill="white"/>
<path d="M104.687 49.4448H72.7665C69.6165 49.4448 66.6765 50.4948 64.2615 52.4898L55.8615 59.3148C53.5515 61.2048 50.5065 62.3598 47.3565 62.3598H11.2366C7.56155 62.3598 4.62155 65.4048 4.62155 68.9748C4.62155 69.2898 4.62155 69.6048 4.72655 69.9198L11.3416 105.305C11.8666 108.665 14.7016 111.08 17.9566 111.08H95.2365C98.5965 111.08 101.327 108.77 101.852 105.41L111.197 57.0048C111.827 53.3298 109.412 50.0748 105.737 49.3398C105.422 49.4448 105.002 49.4448 104.687 49.4448Z" fill="white" stroke="#D6DCE8" stroke-width="2.1" stroke-miterlimit="10"/>
<path d="M42.9442 86.0892C44.8342 86.0892 46.4092 84.5142 46.4092 82.6242C46.4092 80.7342 44.8342 79.1592 42.9442 79.1592C41.0542 79.1592 39.4792 80.7342 39.4792 82.6242C39.4792 84.5142 41.0542 86.0892 42.9442 86.0892Z" fill="#AAB2C5"/>
<path d="M69.9301 85.9847C71.8201 85.9847 73.3951 84.4097 73.3951 82.5197C73.3951 80.6297 71.8201 79.0547 69.9301 79.0547C68.0401 79.0547 66.4651 80.6297 66.4651 82.5197C66.4651 84.5147 68.0401 85.9847 69.9301 85.9847Z" fill="#AAB2C5"/>
<path d="M109.83 108.665C109.41 110.45 108.78 112.34 108.045 113.915C106.05 117.8 102.9 120.845 99.0146 122.84C95.0246 124.835 90.2996 125.675 85.5746 124.625C74.4446 122.315 67.3046 111.395 69.6146 100.265C71.9246 89.1346 82.7396 81.8896 93.8696 84.3046C97.8596 85.1446 101.325 87.1396 104.265 89.8696C109.2 94.8046 111.3 101.945 109.83 108.665Z" fill="#D6DCE8"/>
<path d="M96.2844 102.68H91.5594V97.9549C91.5594 97.0099 90.8244 96.1699 89.7744 96.1699C88.8294 96.1699 87.9894 96.9049 87.9894 97.9549V102.68H83.2644C82.3194 102.68 81.4794 103.415 81.4794 104.465C81.4794 105.515 82.2144 106.25 83.2644 106.25H87.9894V110.975C87.9894 111.92 88.7244 112.76 89.7744 112.76C90.7194 112.76 91.5594 112.025 91.5594 110.975V106.25H96.2844C97.2294 106.25 98.0694 105.515 98.0694 104.465C98.0694 103.415 97.2294 102.68 96.2844 102.68Z" fill="white"/>
<path d="M52.1847 61.2051C48.4047 53.8551 47.5647 45.0351 50.0847 37.0551C52.4997 29.075 58.2747 22.2501 65.4147 18.3651C67.6197 17.2101 70.1397 16.2651 72.6597 16.1601C75.1797 16.0551 77.9097 16.8951 79.5897 18.9951C81.2697 20.8851 81.5847 24.035 80.2197 26.135C78.7497 28.1301 75.8097 28.9701 73.3947 28.3401C69.5097 27.6051 66.3597 24.5601 65.4147 20.8851C64.4697 17.2101 65.7297 12.9051 68.6697 10.4901C70.5597 8.81005 73.1847 7.86505 75.5997 7.13005C87.3597 3.66505 100.17 3.24505 112.14 5.87005" stroke="#D6DCE8" stroke-width="2.1" stroke-miterlimit="10" stroke-dasharray="4.2 4.2"/>
<path d="M59.7443 89.7646H53.2343V91.3396H59.7443V89.7646Z" fill="#AAB2C5"/>
<path d="M118.439 3.13978C118.334 4.71478 118.229 6.18478 117.074 6.49978C115.919 6.81479 115.394 5.76478 114.659 4.29479C113.924 2.92978 114.344 1.45978 115.604 1.14478C116.759 0.829785 118.649 1.24978 118.439 3.13978Z" fill="#F1F3F9" stroke="#D6DCE8" stroke-width="2.1" stroke-miterlimit="10"/>
<path d="M117.181 10.6999C117.496 8.80992 117.811 7.75992 116.761 7.23492C115.606 6.70992 114.871 7.65492 113.611 8.91492C112.561 10.0699 113.191 11.7499 114.241 12.2749C115.501 12.9049 116.866 12.2749 117.181 10.6999Z" fill="#F1F3F9" stroke="#D6DCE8" stroke-width="2.1" stroke-miterlimit="10"/>
<path d="M118.65 7.23432C118.545 7.96932 118.02 8.49432 117.285 8.59932C116.97 8.59932 116.655 8.59932 116.235 8.59932C114.765 8.38932 113.61 7.44432 113.715 6.49932C113.82 5.55432 115.185 5.02932 116.865 5.23932C117.18 5.23932 117.495 5.34432 117.705 5.44932C118.335 5.65932 118.755 6.39432 118.65 7.23432C118.65 7.23432 118.65 7.12932 118.65 7.23432Z" fill="#F1F3F9"/>
<path d="M118.65 7.23432C118.545 7.96932 118.02 8.49432 117.285 8.59932C116.97 8.59932 116.655 8.59932 116.235 8.59932C114.765 8.38932 113.61 7.44432 113.715 6.49932C113.82 5.55432 115.185 5.02932 116.865 5.23932C117.18 5.23932 117.495 5.34432 117.705 5.44932C118.335 5.65932 118.755 6.39432 118.65 7.23432ZM118.65 7.23432C118.65 7.12932 118.65 7.23432 118.65 7.23432Z" stroke="#D6DCE8" stroke-width="2.1" stroke-miterlimit="10"/>
<path d="M1.47018 36.7396C1.47018 34.9546 1.47018 33.1696 2.73018 32.6446C4.09518 32.1196 4.83018 33.3796 5.88018 35.1646C6.82518 36.7396 6.40518 38.4196 5.04018 38.9446C3.88518 39.4696 1.47018 39.1546 1.47018 36.7396Z" fill="#F1F3F9" stroke="#D6DCE8" stroke-width="2.1" stroke-miterlimit="10"/>
<path d="M2.20427 27.9197C1.99427 30.1247 1.67927 31.3847 3.04427 31.9097C4.40927 32.4347 5.14427 31.2797 6.50927 29.5997C7.55927 28.1297 6.82427 26.2397 5.45927 25.7147C4.09427 25.1897 2.41427 26.1347 2.20427 27.9197Z" fill="#F1F3F9" stroke="#D6DCE8" stroke-width="2.1" stroke-miterlimit="10"/>
<path d="M1.04999 32.1196C1.04999 31.2796 1.67999 30.6496 2.41499 30.5446C2.72999 30.4396 3.14999 30.4396 3.56999 30.5446C5.24999 30.6496 6.71999 31.5946 6.61499 32.6446C6.50999 33.6946 5.14499 34.4296 3.35999 34.2196C3.04499 34.2196 2.72999 34.1146 2.41499 34.0096C1.57499 33.9046 1.04999 33.0646 1.04999 32.1196Z" fill="#F1F3F9" stroke="#D6DCE8" stroke-width="2.1" stroke-miterlimit="10"/>
<path d="M8.18997 32.4346C19.215 32.4346 39.585 38.8396 39.9 62.3596" stroke="#D6DCE8" stroke-width="2.1" stroke-miterlimit="10" stroke-dasharray="4.2 4.2"/>
</svg>
